# xmcd CD database file
#
# Track frame offsets:
#	150
#	23475
#	45982
#	67847
#	90415
#	110532
#	129502
#	148990
#	171712
#	188432
#	209480
#	231462
#	259732
#	277082
#
# Disc length: 4102 seconds
#
# Revision: 0
# Processed by: cddbd v1.5.1PL0 Copyright (c) Steve Scherf et al.
# Submitted via: CDex 1.51
#
DISCID=ca10040e
DTITLE=Various Artist - 100% SALSA
DYEAR=2003
DGENRE=Latin
TTITLE0=A La Hora Que Me Llamen, Voy
TTITLE1=Lo Que Te Queda
TTITLE2=Como Amigo Si, Como Amante No
TTITLE3=Dejame Sonar
TTITLE4=Tango Sandunguero
TTITLE5=Dama Elegante
TTITLE6=Dama Elegante
TTITLE7=Contra La Corriente
TTITLE8=Amar Es Algo Mas
TTITLE9=Para Ser Real
TTITLE10=Bailando
TTITLE11=Quiero Morir En Tu Piel
TTITLE12=Nunca Contigo
TTITLE13=Somos El Son
EXTD=YEAR: 2003
EXTT0=
EXTT1=
EXTT2=
EXTT3=
EXTT4=
EXTT5=
EXTT6=
EXTT7=
EXTT8=
EXTT9=
EXTT10=
EXTT11=
EXTT12=
EXTT13=
PLAYORDER=
